<svg width="47" height="47" viewBox="0 0 47 47" fill="none" xmlns="http://www.w3.org/2000/svg">
<path d="M28 40C34.6274 40 40 34.6274 40 28C40 21.3726 34.6274 16 28 16C21.3726 16 16 21.3726 16 28C16 34.6274 21.3726 40 28 40Z" stroke="#F0EFEB" stroke-width="2" stroke-linecap="round" stroke-linejoin="round"/>
<path d="M23.5 28H32.5" stroke="#F0EFEB" stroke-width="2" stroke-linecap="round" stroke-linejoin="round"/>
<path d="M28 23.5V32.5" stroke="#F0EFEB" stroke-width="2" stroke-linecap="round" stroke-linejoin="round"/>
<path d="M36.4844 36.4839L46.0004 45.9999" stroke="#F0EFEB" stroke-width="2" stroke-linecap="round" stroke-linejoin="round"/>
<path d="M1 7V4C1 3.20435 1.31607 2.44129 1.87868 1.87868C2.44129 1.31607 3.20435 1 4 1H7" stroke="#F0EFEB" stroke-width="2" stroke-linecap="round" stroke-linejoin="round"/>
<path d="M7 46H4C3.20435 46 2.44129 45.6839 1.87868 45.1213C1.31607 44.5587 1 43.7956 1 43V40" stroke="#F0EFEB" stroke-width="2" stroke-linecap="round" stroke-linejoin="round"/>
<path d="M1 14.5V20.5" stroke="#F0EFEB" stroke-width="2" stroke-linecap="round" stroke-linejoin="round"/>
<path d="M1 26.5V32.5" stroke="#F0EFEB" stroke-width="2" stroke-linecap="round" stroke-linejoin="round"/>
<path d="M46 14.5V20.5" stroke="#F0EFEB" stroke-width="2" stroke-linecap="round" stroke-linejoin="round"/>
<path d="M14.5 1H20.5" stroke="#F0EFEB" stroke-width="2" stroke-linecap="round" stroke-linejoin="round"/>
<path d="M26.5 1H32.5" stroke="#F0EFEB" stroke-width="2" stroke-linecap="round" stroke-linejoin="round"/>
<path d="M40 1H43C43.7956 1 44.5587 1.31607 45.1213 1.87868C45.6839 2.44129 46 3.20435 46 4V7" stroke="#F0EFEB" stroke-width="2" stroke-linecap="round" stroke-linejoin="round"/>
<path d="M20.5 46H14.5" stroke="#F0EFEB" stroke-width="2" stroke-linecap="round" stroke-linejoin="round"/>
</svg>
