<svg width="22" height="22" viewBox="0 0 22 22" fill="none" xmlns="http://www.w3.org/2000/svg">
<path d="M3 5C4.10457 5 5 4.10457 5 3C5 1.89543 4.10457 1 3 1C1.89543 1 1 1.89543 1 3C1 4.10457 1.89543 5 3 5Z" stroke="#314736" stroke-linecap="round" stroke-linejoin="round"/>
<path d="M3 13C4.10457 13 5 12.1046 5 11C5 9.89543 4.10457 9 3 9C1.89543 9 1 9.89543 1 11C1 12.1046 1.89543 13 3 13Z" stroke="#314736" stroke-linecap="round" stroke-linejoin="round"/>
<path d="M3 21.0005C4.10457 21.0005 5 20.1051 5 19.0005C5 17.8959 4.10457 17.0005 3 17.0005C1.89543 17.0005 1 17.8959 1 19.0005C1 20.1051 1.89543 21.0005 3 21.0005Z" stroke="#314736" stroke-linecap="round" stroke-linejoin="round"/>
<path d="M7.66675 3H21.0001" stroke="#314736" stroke-linecap="round" stroke-linejoin="round"/>
<path d="M7.66675 11H21.0001" stroke="#314736" stroke-linecap="round" stroke-linejoin="round"/>
<path d="M7.66675 19H21.0001" stroke="#314736" stroke-linecap="round" stroke-linejoin="round"/>
</svg>
