<svg width="19" height="23" viewBox="0 0 19 23" fill="none" xmlns="http://www.w3.org/2000/svg">
<path d="M9.5 13.75C11.8472 13.75 13.75 11.8472 13.75 9.5C13.75 7.15279 11.8472 5.25 9.5 5.25C7.15279 5.25 5.25 7.15279 5.25 9.5C5.25 11.8472 7.15279 13.75 9.5 13.75Z" stroke="#314736" stroke-linecap="round" stroke-linejoin="round"/>
<path d="M18 9.5C18 16.9611 11.4531 21.1459 9.85039 22.0611C9.74353 22.1221 9.62259 22.1543 9.49953 22.1543C9.37646 22.1543 9.25553 22.1221 9.14867 22.0611C7.54594 21.145 1 16.9592 1 9.5C1 7.24566 1.89553 5.08365 3.48959 3.48959C5.08365 1.89553 7.24566 1 9.5 1C11.7543 1 13.9163 1.89553 15.5104 3.48959C17.1045 5.08365 18 7.24566 18 9.5Z" stroke="#314736" stroke-linecap="round" stroke-linejoin="round"/>
</svg>
