<?xml version="1.0" encoding="utf-8"?>
<!-- Generator: Adobe Illustrator 25.4.6, SVG Export Plug-In . SVG Version: 6.00 Build 0)  -->
<svg version="1.1" id="Ebene_1" xmlns="http://www.w3.org/2000/svg" xmlns:xlink="http://www.w3.org/1999/xlink" x="0px" y="0px"
	 viewBox="0 0 140 25" style="enable-background:new 0 0 140 25;" xml:space="preserve">
<style type="text/css">
	.st0{fill:#F0EFEB;}
</style>
<path class="st0" d="M14.2,24v-1.5H2.9l11-15.8V5.3H1.2v1.6h10.7L1,22.7V24H14.2z M22.5,2.6c0.7,0,1.2-0.5,1.2-1.2
	c0-0.7-0.5-1.2-1.2-1.2c-0.7,0-1.2,0.5-1.2,1.2C21.3,2.1,21.8,2.6,22.5,2.6z M26.9,2.6c0.7,0,1.2-0.5,1.2-1.2c0-0.7-0.5-1.2-1.2-1.2
	s-1.2,0.5-1.2,1.2C25.7,2.1,26.2,2.6,26.9,2.6z M17.9,15.5c0,5.7,2.2,8.8,6.8,8.8c4.6,0,6.9-3.1,6.9-8.8V5.3H30v10.1
	c0,4.8-1.7,7.4-5.4,7.4c-3.6,0-5.3-2.5-5.3-7.3V5.3h-1.5V15.5z M37,24h1.5v-7.9l7.6,7.9h2.2l-8-8c1.8-0.1,3.4-0.2,4.9-1.2
	c1.3-1,2-2.5,2-4.2c0-3.4-2.7-5.3-6.6-5.3H37V24z M40.8,6.9c3,0,4.9,1.5,4.9,3.7c0,2.6-1.8,4.1-5,4.1h-2.1V6.9H40.8z M52,24h1.5V5.3
	H52V24z M59.1,24h4.4c5.4,0,6.9-2.5,6.9-5.3c0-2.4-1.4-4-3.8-4.7c2.2-0.6,3-2.2,3-4.2c0-2.9-1.8-4.5-6.5-4.5h-4V24z M63.2,6.9
	c3.7,0,4.9,1.2,4.9,3.1c0,2.2-1.1,3.5-5,3.5h-2.3V6.9H63.2z M63.3,15c3.5,0,5.6,1.2,5.6,3.9c0,2.2-1.3,3.7-5.4,3.7h-2.8V15H63.3z
	 M74.7,15.5c0,5.7,2.2,8.8,6.8,8.8c4.6,0,6.9-3.1,6.9-8.8V5.3h-1.6v10.1c0,4.8-1.7,7.4-5.4,7.4c-3.6,0-5.3-2.5-5.3-7.3V5.3h-1.5
	V15.5z M93.8,24h10.3v-1.5h-8.8v-7.5h8.1v-1.5h-8.1V6.9h8.8V5.3H93.8V24z M120.7,22c-1.1,0.4-2.6,0.8-4,0.8c-4.8,0-8-3.2-8-8.1
	c0-4.7,3.1-8,7.6-8c1.8,0,3.1,0.3,4.2,0.8l0.2-1.7c-1.1-0.6-2.8-0.9-4.4-0.9c-5.3,0-9.1,4-9.1,9.6c0,5.9,3.7,9.6,9.5,9.6
	c1.5,0,3.1-0.3,4.2-0.8L120.7,22z M124.9,24h1.5v-8.9h11.3V24h1.5V5.3h-1.5v8.3h-11.3V5.3h-1.5V24z"/>
</svg>
