<svg width="22" height="22" viewBox="0 0 22 22" fill="none" xmlns="../../www.w3.org/2000/svg.html">
<path d="M3 5C4.10457 5 5 4.10457 5 3C5 1.89543 4.10457 1 3 1C1.89543 1 1 1.89543 1 3C1 4.10457 1.89543 5 3 5Z" stroke="#283A2C" stroke-linecap="round" stroke-linejoin="round"/>
<path d="M3 13.0002C4.10457 13.0002 5 12.1048 5 11.0002C5 9.89567 4.10457 9.00024 3 9.00024C1.89543 9.00024 1 9.89567 1 11.0002C1 12.1048 1.89543 13.0002 3 13.0002Z" stroke="#283A2C" stroke-linecap="round" stroke-linejoin="round"/>
<path d="M3 21.0002C4.10457 21.0002 5 20.1048 5 19.0002C5 17.8957 4.10457 17.0002 3 17.0002C1.89543 17.0002 1 17.8957 1 19.0002C1 20.1048 1.89543 21.0002 3 21.0002Z" stroke="#283A2C" stroke-linecap="round" stroke-linejoin="round"/>
<path d="M7.66675 2.99976H21.0001" stroke="#283A2C" stroke-linecap="round" stroke-linejoin="round"/>
<path d="M7.66675 11H21.0001" stroke="#283A2C" stroke-linecap="round" stroke-linejoin="round"/>
<path d="M7.66675 19.0002H21.0001" stroke="#283A2C" stroke-linecap="round" stroke-linejoin="round"/>
</svg>
