<svg width="149" height="101" viewBox="0 0 149 101" fill="none" xmlns="../../www.w3.org/2000/svg.html">
<g clip-path="url(#clip0_201_320)">
<path d="M138.576 10.8491L61.8646 14.8694C59.8472 14.9751 58.2974 16.6963 58.4032 18.7137L62.4234 95.4247C62.5291 97.4422 64.2503 98.9919 66.2678 98.8862L142.979 94.8659C144.996 94.7602 146.546 93.039 146.44 91.0216L142.42 14.3106C142.314 12.2931 140.593 10.7434 138.576 10.8491Z" stroke="black" stroke-width="2" stroke-linecap="round" stroke-linejoin="round"/>
<path d="M145.483 72.757L61.4662 77.1602" stroke="black" stroke-width="2" stroke-linecap="round" stroke-linejoin="round"/>
<path d="M91.6622 24.2965C89.4694 24.3756 87.3789 25.2435 85.7749 26.7408C84.171 28.2381 83.1614 30.2641 82.932 32.4462C82.1606 32.1958 81.3434 32.1194 80.539 32.2226C79.7346 32.3258 78.9631 32.606 78.28 33.0431C77.5969 33.4802 77.0192 34.0633 76.5885 34.7504C76.1577 35.4375 75.8846 36.2116 75.7888 37.0169C75.6931 37.8222 75.777 38.6387 76.0346 39.4076C76.2922 40.1766 76.717 40.8789 77.2785 41.464C77.8401 42.0492 78.5243 42.5025 79.282 42.7915C80.0398 43.0805 80.8521 43.198 81.6607 43.1354L92.6194 42.5611C95.0414 42.4341 97.3138 41.3502 98.9367 39.5479C100.56 37.7455 101.4 35.3722 101.273 32.9502C101.146 30.5282 100.062 28.2558 98.2599 26.6329C96.4575 25.01 94.0842 24.1696 91.6622 24.2965V24.2965Z" stroke="black" stroke-width="2" stroke-linecap="round" stroke-linejoin="round"/>
<path d="M70.5985 76.6815L83.1261 58.5162C83.7146 57.7351 84.4538 57.08 85.2998 56.5896C86.1459 56.0991 87.0817 55.7833 88.052 55.6607C89.0222 55.5381 90.0072 55.6114 90.9486 55.876C91.8901 56.1407 92.7689 56.5914 93.5332 57.2015L103.094 67.6893L114.926 48.1318C115.418 47.105 116.186 46.2351 117.144 45.6192C118.101 45.0033 119.212 44.6657 120.35 44.644C121.489 44.6224 122.611 44.9175 123.591 45.4964C124.572 46.0754 125.373 46.9154 125.903 47.9228L140.004 73.0442" stroke="black" stroke-width="2" stroke-linecap="round" stroke-linejoin="round"/>
</g>
<path d="M78.8333 1.83337H9.16667C5.11658 1.83337 1.83334 5.11662 1.83334 9.16671V78.8334C1.83334 82.8835 5.11658 86.1667 9.16667 86.1667H78.8333C82.8834 86.1667 86.1667 82.8835 86.1667 78.8334V9.16671C86.1667 5.11662 82.8834 1.83337 78.8333 1.83337Z" fill="white" stroke="black" stroke-width="2" stroke-linecap="round" stroke-linejoin="round"/>
<path d="M60.5 36.6667C65.5626 36.6667 69.6667 32.5627 69.6667 27.5C69.6667 22.4374 65.5626 18.3334 60.5 18.3334C55.4374 18.3334 51.3333 22.4374 51.3333 27.5C51.3333 32.5627 55.4374 36.6667 60.5 36.6667Z" fill="white" stroke="black" stroke-width="2" stroke-linecap="round" stroke-linejoin="round"/>
<path d="M60.5 11.0001V9.16675" stroke="black" stroke-width="2" stroke-linecap="round" stroke-linejoin="round"/>
<path d="M48.8327 15.8327L47.5347 14.5347" stroke="black" stroke-width="2" stroke-linecap="round" stroke-linejoin="round"/>
<path d="M44 27.5H42.1667" stroke="black" stroke-width="2" stroke-linecap="round" stroke-linejoin="round"/>
<path d="M48.8327 39.1674L47.5347 40.4654" stroke="black" stroke-width="2" stroke-linecap="round" stroke-linejoin="round"/>
<path d="M60.5 44V45.8333" stroke="black" stroke-width="2" stroke-linecap="round" stroke-linejoin="round"/>
<path d="M72.1673 39.1674L73.4653 40.4654" stroke="black" stroke-width="2" stroke-linecap="round" stroke-linejoin="round"/>
<path d="M77 27.5H78.8333" stroke="black" stroke-width="2" stroke-linecap="round" stroke-linejoin="round"/>
<path d="M72.1673 15.8327L73.4653 14.5347" stroke="black" stroke-width="2" stroke-linecap="round" stroke-linejoin="round"/>
<path d="M8.459 58.3C12.3952 55.1738 17.0107 53.0159 21.9337 52.0003C26.8567 50.9847 31.9494 51.1398 36.8014 52.4531C41.6535 53.7663 46.1292 56.2011 49.8679 59.561C53.6065 62.921 56.5036 67.1122 58.3257 71.797" fill="white"/>
<path d="M8.459 58.3C12.3952 55.1738 17.0107 53.0159 21.9337 52.0003C26.8567 50.9847 31.9494 51.1398 36.8014 52.4531C41.6535 53.7663 46.1292 56.2011 49.8679 59.561C53.6065 62.921 56.5036 67.1122 58.3257 71.797" stroke="black" stroke-width="2" stroke-linecap="round" stroke-linejoin="round"/>
<path d="M53.3427 63.217C55.131 61.5859 57.2396 60.3453 59.534 59.5744C61.8285 58.8035 64.2584 58.5192 66.6688 58.7396C69.0792 58.9601 71.4172 59.6804 73.5338 60.8547C75.6503 62.0291 77.4989 63.6315 78.9617 65.56" fill="white"/>
<path d="M53.3427 63.217C55.131 61.5859 57.2396 60.3453 59.534 59.5744C61.8285 58.8035 64.2584 58.5192 66.6688 58.7396C69.0792 58.9601 71.4172 59.6804 73.5338 60.8547C75.6503 62.0291 77.4989 63.6315 78.9617 65.56" stroke="black" stroke-width="2" stroke-linecap="round" stroke-linejoin="round"/>
<defs>
<clipPath id="clip0_201_320">
<rect width="87.7901" height="87.7901" fill="white" transform="translate(56.2896 13.3301) rotate(-3)"/>
</clipPath>
</defs>
</svg>
